<?xml version="1.0" encoding="UTF-8"?><svg id="Layer_2" xmlns="http://www.w3.org/2000/svg" viewBox="0 0 434.33 138.12"><defs><style>.cls-1{fill:#182033;}.cls-2{fill:#931943;}.cls-3{fill:#f37221;}</style></defs><g id="Layer_1-2"><g><path class="cls-1" d="M171.33,22.9V59.37h-11.15V10.84c0-4.29,2.26-6.93,5.88-6.93,1.73,0,3.09,.6,4.75,2.19l35.87,34.43V4.06h11.23V53.11c0,4.37-2.41,7.01-5.88,7.01-1.81,0-3.24-.68-4.82-2.26l-35.87-34.96Z"/><path class="cls-1" d="M282.16,59.37l-7.69-12.96h-23.13l5.35-9.12h12.36l-10.02-16.88-22.98,38.96h-13.34L253.83,7.6c1.36-2.26,3.09-3.77,5.65-3.77s4.29,1.51,5.65,3.77l31.12,51.76h-14.09Z"/><path class="cls-1" d="M301.37,59.37v-11.75h41.37c4.22,0,6.63-2.19,6.63-5.65,0-3.69-2.41-5.8-6.63-5.8h-24.79c-10.77,0-17.41-6.48-17.41-15.75s6.18-15.82,17.56-15.82h39.63v11.75h-39.63c-3.32,0-5.35,1.88-5.35,5.27s2.11,5.27,5.35,5.27h24.64c11.53,0,17.71,5.12,17.71,16.05,0,9.42-5.8,16.43-17.71,16.43h-41.37Z"/><path class="cls-1" d="M420.11,59.37l-7.69-12.96h-23.13l5.35-9.12h12.36l-10.02-16.88-22.98,38.96h-13.34l31.12-51.76c1.36-2.26,3.09-3.77,5.65-3.77s4.29,1.51,5.65,3.77l31.12,51.76h-14.09Z"/></g><g><polygon class="cls-3" points="25.51 89.73 6.22 117.23 6.22 124.61 38.72 110.87 51.67 97.13 50.34 88.25 42.95 84.44 25.51 89.73"/><path class="cls-1" d="M129.23,46.04c-3.86-.64-7.74-1.17-11.61-1.73-.35-.05-.85-.19-1.04-.02-1.56,1.35-3.06,2.77-4.58,4.17,0,0-.48,.42,.19,.49,3.13,.35,6.26,.71,9.89,1.11-.96,.64-1.45,.97-1.95,1.28-5.57,3.49-11.15,6.94-16.7,10.47-1.98,1.26-3.96,2.56-5.76,4.05-2.57,2.13-2.88,3.57-1.74,6.68,1.35,3.68,2.76,7.33,4.14,10.99,1.78,4.73,3.55,9.45,5.32,14.18-.11,.1-.21,.19-.32,.29-.47-.36-.95-.71-1.41-1.09-6.11-4.91-12.19-9.85-18.34-14.71-.73-.57-1.8-.71-2.72-1.05-.28,.92-.79,1.85-.8,2.77-.06,7.84,0,15.67-.06,23.51-.01,1.83,.58,3.16,2.08,4.26,7.24,5.31,14.43,10.7,21.65,16.04,.62,.46,1.31,.91,2.04,1.14,3.52,1.14,5.52,.37,6.29-3.28,.87-4.12,1.81-8.25,2.41-12.41,.29-2.02,.41-4.34-.3-6.17-2.77-7.19-5.91-14.24-8.89-21.35-.18-.42-.26-.89-.39-1.36,.52-.29,.95-.51,1.36-.75,6.36-3.68,12.73-7.35,19.08-11.07,2.15-1.26,3.88-2.89,4.13-5.57,.52-5.57,1.11-11.14,1.49-16.73,.2-2.9-.57-3.69-3.47-4.17Z"/><path class="cls-1" d="M91.46,25.75c-2.06-6.04-3.99-12.13-5.99-18.2-.51-1.54-1.05-3.09-1.72-4.56-1.52-3.36-3.65-3.88-6.58-1.58-1.18,.92-2.29,1.98-3.26,3.12-5.5,6.47-10.94,13.01-16.46,19.46-.49,.57-1.49,1.03-2.24,1.02-6.33-.1-12.65-.34-18.98-.52-6.93-.19-13.85-.41-20.78-.53-3.22-.06-4.77,1.16-5.16,4.31-.5,4.06-.75,8.16-.99,12.25-.04,.75,.37,1.64,.82,2.28,1.04,1.47,2.12,2.94,3.38,4.22,5.54,5.62,11.17,11.15,16.74,16.75,4.29,4.31,3.49,3.77,.91,7.85-10.01,15.84-20.04,31.66-30.03,47.51-.5,.79-1.02,1.75-1.04,2.65-.11,4.94-.11,9.89,0,14.83,0,0-.09,1.69,1.63,1.5,1.51-.17,3.1-.54,4.45-1.24,6.67-3.5,13.28-7.09,19.88-10.72,8.02-4.41,16.06-8.79,23.98-13.37,3.05-1.76,5.66-4.32,6.03-8.03,.37-3.76,.03-7.58,.2-11.37,.13-3.06-1.22-5.03-3.54-6.94-4.13-3.4-8.59-4.86-13.81-3.66-2.55,.59-5.05,1.4-7.71,2.16,.37-.63,.7-1.2,1.04-1.76,4.86-7.97,9.73-15.92,14.58-23.9,2.02-3.32,1.7-4.89-1.18-7.51-7.62-6.94-15.18-13.94-22.76-20.92-.27-.25-.45-.59-.51-.68,4.01,0,8.04-.04,12.06,0,7.59,.08,15.18,.22,22.77,.3,2.12,.02,3.78-.95,5.12-2.61,5.07-6.21,10.18-12.39,15.28-18.57,.24-.29,.55-.52,.93-.89,.26,.69,.47,1.18,.63,1.69,2.08,6.48,4.15,12.97,6.21,19.45,1.07,3.38,1.54,3.73,3.75,1.62h0s1.79-1.68,1.79-1.68h0c1.1-1.02,1.05-2.24,.54-3.74Zm-52.13,62.66c3.33-.47,7.34-.05,8.44,3.56,.28,.93,.22,2.13-.12,3.04-1.39,3.68-4.71,5.56-7.69,7.69-7.37,5.28-15.69,8.77-23.86,12.53-1.5,.69-3.02,1.34-4.54,2.01l-2.07,.87,1.91-3.49c.06-.13,.13-.26,.21-.38,3.47-4.9,6.83-9.9,10.64-14.53,4.49-5.46,9.69-10.26,17.1-11.29Z"/><polygon class="cls-3" points="11.59 114.23 8.44 118.71 11.55 117.23 11.59 114.23"/><path class="cls-2" d="M127.82,10.72c-4.03,.99-8.06,2.01-12,3.28-1.76,.57-3.4,1.65-4.93,2.72-1.37,.96-2.52,2.23-3.77,3.36-13.51,12.17-27.03,24.33-40.53,36.5-1.5,1.35-3.14,2.26-5.16,2.74-3.63,.86-7.19,2-10.76,3.06-.5,.15-1.13,.36-1.38,.75-2.28,3.53-4.5,7.1-6.82,10.82-.39,.62-.15,1.44,.51,1.75,.84,.4,1.62,.76,2.37,1.11,.49,.23,.77,.76,.68,1.29-.1,.65-.21,1.29-.31,1.94-.11,.66,.34,1.28,1,1.39,.39,.07,.77,.13,1.14,.19,.66,.11,1.28-.34,1.4-1,.1-.61,.19-1.13,.24-1.65,.15-1.52,1.36-1.9,2.44-1.84,4.36,.25,9.71,4.96,10.7,8.38,.63,2.15-.24,3.38-2.5,3.47-1.07,.04-2.31-.18-2.25,1.52,.05,1.33,.48,2.31,1.76,2.43,.03,0,.35,0,.8,0,.13,0,.26-.01,.39-.01,.88-.04,2-.15,2.5-.44h0c2.02-.96,3.24-.05,4.29,1.64,.16,.25,.4,.46,.55,.72,.54,.93,1.14,1.08,1.96,.28,2.41-2.35,4.85-4.66,7.26-7.01,.44-.43,.72-1.01,.78-1.63,.38-3.88,.78-7.77,1.02-11.66,.08-1.23,.36-2.14,1.3-2.97,6.11-5.46,12.22-10.92,18.25-16.47,9.3-8.57,18.55-17.2,27.79-25.83,.63-.59,1.28-1.35,1.51-2.15,1.28-4.38,2.59-8.76,3.56-13.21,.65-2.99-.81-4.21-3.79-3.48Z"/><path class="cls-1" d="M84.98,81.98s-1.33-.84-2.37-.81c0,0-.74-.17-.78,2.47l3.14-1.66Z"/></g><g><path class="cls-1" d="M160.29,98.51c-.11-.11-.17-.31-.03-.48l2.13-2.44c.11-.14,.28-.14,.42-.03,1.26,1.01,2.97,1.96,4.99,1.96s3.11-.92,3.11-2.27c0-1.12-.67-1.82-2.94-2.13l-1.01-.14c-3.87-.53-6.03-2.35-6.03-5.72s2.63-5.83,6.75-5.83c2.52,0,4.88,.76,6.48,1.99,.17,.11,.2,.22,.06,.42l-1.71,2.55c-.11,.14-.25,.17-.39,.08-1.46-.95-2.86-1.46-4.43-1.46-1.68,0-2.55,.87-2.55,2.07,0,1.09,.79,1.79,2.97,2.1l1.01,.14c3.92,.53,6,2.33,6,5.77s-2.55,6-7.48,6c-2.97,0-5.86-1.18-7.34-2.61Z"/><path class="cls-1" d="M185.54,100.81c-.17,0-.28-.11-.28-.28v-14.94c0-.11-.06-.17-.17-.17h-4.82c-.17,0-.28-.11-.28-.28v-3.11c0-.17,.11-.28,.28-.28h14.1c.17,0,.28,.11,.28,.28v3.11c0,.17-.11,.28-.28,.28h-4.82c-.11,0-.17,.06-.17,.17v14.94c0,.17-.11,.28-.28,.28h-3.56Z"/><path class="cls-1" d="M200.65,93.8v-11.77c0-.17,.11-.28,.28-.28h3.56c.17,0,.28,.11,.28,.28v11.88c0,2.27,1.26,3.56,3.2,3.56s3.17-1.29,3.17-3.56v-11.88c0-.17,.11-.28,.28-.28h3.56c.17,0,.28,.11,.28,.28v11.77c0,4.74-3.03,7.32-7.29,7.32s-7.32-2.58-7.32-7.32Z"/><path class="cls-1" d="M222.59,82.03c0-.17,.11-.28,.28-.28h7.09c3.33,0,5.66,1.43,6.59,4.29,.34,1.07,.5,2.13,.5,5.24s-.17,4.18-.5,5.24c-.92,2.86-3.25,4.29-6.59,4.29h-7.09c-.17,0-.28-.11-.28-.28v-18.5Zm4.29,15.11h2.16c1.91,0,3.06-.56,3.53-2.1,.2-.56,.31-1.29,.31-3.76s-.11-3.2-.31-3.76c-.48-1.54-1.63-2.1-3.53-2.1h-2.16c-.11,0-.17,.06-.17,.17v11.38c0,.11,.06,.17,.17,.17Z"/><path class="cls-1" d="M244.03,82.03c0-.17,.11-.28,.28-.28h12.22c.17,0,.28,.11,.28,.28v3c0,.17-.11,.28-.28,.28h-8.21c-.11,0-.17,.06-.17,.17v3.78c0,.11,.06,.17,.17,.17h6.84c.17,0,.28,.11,.28,.28v2.97c0,.17-.11,.28-.28,.28h-6.84c-.11,0-.17,.06-.17,.17v3.95c0,.11,.06,.17,.17,.17h8.21c.17,0,.28,.11,.28,.28v3c0,.17-.11,.28-.28,.28h-12.22c-.17,0-.28-.11-.28-.28v-18.5Z"/><path class="cls-1" d="M263.65,82.03c0-.17,.11-.28,.28-.28h3.36c.2,0,.36,.08,.48,.28l6.73,12h.14v-12c0-.17,.11-.28,.28-.28h3.17c.17,0,.28,.11,.28,.28v18.5c0,.17-.11,.28-.28,.28h-3.34c-.22,0-.36-.08-.48-.28l-6.75-11.97h-.14v11.97c0,.17-.11,.28-.28,.28h-3.17c-.17,0-.28-.11-.28-.28v-18.5Z"/><path class="cls-1" d="M289.99,100.81c-.17,0-.28-.11-.28-.28v-14.94c0-.11-.06-.17-.17-.17h-4.82c-.17,0-.28-.11-.28-.28v-3.11c0-.17,.11-.28,.28-.28h14.1c.17,0,.28,.11,.28,.28v3.11c0,.17-.11,.28-.28,.28h-4.82c-.11,0-.17,.06-.17,.17v14.94c0,.17-.11,.28-.28,.28h-3.56Z"/><path class="cls-1" d="M315.27,82.03c0-.17,.11-.28,.28-.28h3.56c.17,0,.28,.11,.28,.28v14.94c0,.11,.06,.17,.17,.17h8.41c.17,0,.28,.11,.28,.28v3.11c0,.17-.11,.28-.28,.28h-12.42c-.17,0-.28-.11-.28-.28v-18.5Z"/><path class="cls-1" d="M339.6,82.03c.06-.17,.17-.28,.37-.28h3.53c.2,0,.31,.11,.36,.28l6.45,18.5c.06,.17,0,.28-.2,.28h-3.64c-.2,0-.31-.08-.37-.28l-1.09-3.34h-6.67l-1.07,3.34c-.06,.2-.17,.28-.36,.28h-3.67c-.2,0-.25-.11-.2-.28l6.56-18.5Zm4.29,11.66l-2.16-6.67h-.08l-2.16,6.67h4.4Z"/><path class="cls-1" d="M355.55,93.8v-11.77c0-.17,.11-.28,.28-.28h3.56c.17,0,.28,.11,.28,.28v11.88c0,2.27,1.26,3.56,3.2,3.56s3.17-1.29,3.17-3.56v-11.88c0-.17,.11-.28,.28-.28h3.56c.17,0,.28,.11,.28,.28v11.77c0,4.74-3.03,7.32-7.29,7.32s-7.32-2.58-7.32-7.32Z"/><path class="cls-1" d="M377.49,82.03c0-.17,.11-.28,.28-.28h3.36c.2,0,.36,.08,.48,.28l6.73,12h.14v-12c0-.17,.11-.28,.28-.28h3.17c.17,0,.28,.11,.28,.28v18.5c0,.17-.11,.28-.28,.28h-3.34c-.22,0-.36-.08-.48-.28l-6.75-11.97h-.14v11.97c0,.17-.11,.28-.28,.28h-3.17c-.17,0-.28-.11-.28-.28v-18.5Z"/><path class="cls-1" d="M399.13,91.28c0-2.94,.11-3.92,.53-5.16,1.01-3.11,3.45-4.68,6.78-4.68s5.58,1.57,6.64,4.23c.08,.14,.03,.28-.14,.34l-3.06,1.37c-.17,.08-.31,.03-.39-.14-.53-1.23-1.43-2.16-3.03-2.16-1.49,0-2.44,.78-2.86,2.1-.22,.7-.31,1.37-.31,4.09s.08,3.39,.31,4.09c.42,1.32,1.37,2.1,2.86,2.1,1.6,0,2.5-.92,3.03-2.16,.08-.17,.22-.22,.39-.14l3.06,1.37c.17,.06,.22,.2,.14,.34-1.07,2.66-3.42,4.23-6.64,4.23s-5.77-1.57-6.78-4.68c-.42-1.23-.53-2.21-.53-5.16Z"/><path class="cls-1" d="M419.53,82.03c0-.17,.11-.28,.28-.28h3.56c.17,0,.28,.11,.28,.28v7.15c0,.11,.06,.17,.17,.17h6.22c.11,0,.17-.06,.17-.17v-7.15c0-.17,.11-.28,.28-.28h3.56c.17,0,.28,.11,.28,.28v18.5c0,.17-.11,.28-.28,.28h-3.56c-.17,0-.28-.11-.28-.28v-7.34c0-.11-.06-.17-.17-.17h-6.22c-.11,0-.17,.06-.17,.17v7.34c0,.17-.11,.28-.28,.28h-3.56c-.17,0-.28-.11-.28-.28v-18.5Z"/></g><g><path class="cls-1" d="M166.63,110.56c.06-.17,.17-.28,.36-.28h3.51c.19,0,.31,.11,.36,.28l6.41,18.32c.06,.17,0,.28-.2,.28h-3.62c-.2,0-.31-.08-.36-.28l-1.09-3.3h-6.63l-1.06,3.3c-.06,.19-.17,.28-.36,.28h-3.65c-.19,0-.25-.11-.19-.28l6.52-18.32Zm4.26,11.55l-2.15-6.61h-.08l-2.15,6.61h4.38Z"/><path class="cls-1" d="M185.64,129.16c-.17,0-.28-.11-.28-.28v-14.79c0-.11-.06-.17-.17-.17h-4.79c-.17,0-.28-.11-.28-.28v-3.08c0-.17,.11-.28,.28-.28h14.02c.17,0,.28,.11,.28,.28v3.08c0,.17-.11,.28-.28,.28h-4.79c-.11,0-.17,.06-.17,.17v14.79c0,.17-.11,.28-.28,.28h-3.54Z"/><path class="cls-1" d="M214.86,129.16c-.2,0-.31-.11-.36-.28l-6.02-18.29c-.06-.19,.06-.31,.25-.31h3.62c.2,0,.31,.08,.36,.28l3.79,12.38h.08l3.68-12.38c.06-.19,.17-.28,.36-.28h3.6c.17,0,.28,.11,.22,.31l-6.02,18.29c-.06,.17-.17,.28-.33,.28h-3.23Z"/><path class="cls-1" d="M230.34,110.56c0-.17,.11-.28,.28-.28h3.54c.17,0,.28,.11,.28,.28v18.32c0,.17-.11,.28-.28,.28h-3.54c-.17,0-.28-.11-.28-.28v-18.32Z"/><path class="cls-1" d="M252.31,129.16c-.25,0-.33-.08-.42-.28l-3.26-6.91h-2.54c-.11,0-.17,.06-.17,.17v6.75c0,.17-.11,.28-.28,.28h-3.54c-.17,0-.28-.11-.28-.28v-18.32c0-.17,.11-.28,.28-.28h7.55c3.88,0,6.44,2.42,6.44,5.86,0,2.42-1.28,4.33-3.37,5.25l3.74,7.44c.08,.17,0,.33-.2,.33h-3.96Zm-.31-13.02c0-1.42-1-2.33-2.56-2.33h-3.35c-.11,0-.17,.06-.17,.17v4.36c0,.11,.06,.17,.17,.17h3.35c1.56,0,2.56-.92,2.56-2.36Z"/><path class="cls-1" d="M262.38,119.72c0-2.8,.11-3.86,.53-5.16,.97-3.05,3.6-4.58,6.97-4.58,3.54,0,5.85,1.75,6.75,4.02,.08,.17,.06,.33-.11,.42l-2.98,1.25c-.19,.06-.33,0-.39-.14-.75-1.28-1.7-1.94-3.26-1.94s-2.62,.8-3.04,2.11c-.22,.67-.31,1.55-.31,4.03s.08,3.39,.31,4.05c.42,1.3,1.45,2.08,3.09,2.08,1.42,0,2.65-.69,3.04-1.94,.14-.47,.22-1.05,.22-1.86,0-.11-.06-.17-.17-.17h-2.57c-.17,0-.28-.11-.28-.28v-2.66c0-.17,.11-.28,.28-.28h6.52c.17,0,.28,.11,.28,.28v1.55c0,1.67-.14,3.22-.47,4.25-.95,3.03-3.57,4.72-6.91,4.72s-5.99-1.53-6.97-4.58c-.42-1.3-.53-2.36-.53-5.16Z"/><path class="cls-1" d="M284.15,110.56c0-.17,.11-.28,.28-.28h3.54c.17,0,.28,.11,.28,.28v18.32c0,.17-.11,.28-.28,.28h-3.54c-.17,0-.28-.11-.28-.28v-18.32Z"/><path class="cls-1" d="M295.64,110.56c0-.17,.11-.28,.28-.28h3.35c.19,0,.36,.08,.47,.28l6.69,11.88h.14v-11.88c0-.17,.11-.28,.28-.28h3.15c.17,0,.28,.11,.28,.28v18.32c0,.17-.11,.28-.28,.28h-3.32c-.22,0-.36-.08-.47-.28l-6.72-11.85h-.14v11.85c0,.17-.11,.28-.28,.28h-3.15c-.17,0-.28-.11-.28-.28v-18.32Z"/><path class="cls-1" d="M317.67,110.56c0-.17,.11-.28,.28-.28h3.54c.17,0,.28,.11,.28,.28v18.32c0,.17-.11,.28-.28,.28h-3.54c-.17,0-.28-.11-.28-.28v-18.32Z"/><path class="cls-1" d="M334.26,110.56c.06-.17,.17-.28,.36-.28h3.51c.19,0,.31,.11,.36,.28l6.41,18.32c.06,.17,0,.28-.2,.28h-3.62c-.2,0-.31-.08-.36-.28l-1.09-3.3h-6.63l-1.06,3.3c-.06,.19-.17,.28-.36,.28h-3.65c-.19,0-.25-.11-.19-.28l6.52-18.32Zm4.26,11.55l-2.15-6.61h-.08l-2.15,6.61h4.38Z"/><path class="cls-1" d="M365.1,129.16c-.17,0-.28-.11-.28-.28v-14.79c0-.11-.06-.17-.17-.17h-4.79c-.17,0-.28-.11-.28-.28v-3.08c0-.17,.11-.28,.28-.28h14.02c.17,0,.28,.11,.28,.28v3.08c0,.17-.11,.28-.28,.28h-4.79c-.11,0-.17,.06-.17,.17v14.79c0,.17-.11,.28-.28,.28h-3.54Z"/><path class="cls-1" d="M380.21,110.56c0-.17,.11-.28,.28-.28h12.15c.17,0,.28,.11,.28,.28v2.97c0,.17-.11,.28-.28,.28h-8.17c-.11,0-.17,.06-.17,.17v3.75c0,.11,.06,.17,.17,.17h6.8c.17,0,.28,.11,.28,.28v2.94c0,.17-.11,.28-.28,.28h-6.8c-.11,0-.17,.06-.17,.17v3.91c0,.11,.06,.17,.17,.17h8.17c.17,0,.28,.11,.28,.28v2.97c0,.17-.11,.28-.28,.28h-12.15c-.17,0-.28-.11-.28-.28v-18.32Z"/><path class="cls-1" d="M399.22,119.72c0-2.92,.11-3.89,.53-5.11,1-3.08,3.43-4.63,6.75-4.63s5.55,1.55,6.61,4.19c.08,.14,.03,.28-.14,.33l-3.04,1.36c-.17,.08-.31,.03-.39-.14-.53-1.22-1.42-2.14-3.01-2.14-1.48,0-2.43,.78-2.84,2.08-.22,.69-.31,1.36-.31,4.05s.08,3.36,.31,4.05c.42,1.3,1.37,2.08,2.84,2.08,1.59,0,2.48-.92,3.01-2.14,.08-.17,.22-.22,.39-.14l3.04,1.36c.17,.06,.22,.19,.14,.33-1.06,2.64-3.4,4.19-6.61,4.19s-5.74-1.55-6.75-4.64c-.42-1.22-.53-2.19-.53-5.11Z"/><path class="cls-1" d="M419.52,110.56c0-.17,.11-.28,.28-.28h3.54c.17,0,.28,.11,.28,.28v7.08c0,.11,.06,.17,.17,.17h6.19c.11,0,.17-.05,.17-.17v-7.08c0-.17,.11-.28,.28-.28h3.54c.17,0,.28,.11,.28,.28v18.32c0,.17-.11,.28-.28,.28h-3.54c-.17,0-.28-.11-.28-.28v-7.27c0-.11-.06-.17-.17-.17h-6.19c-.11,0-.17,.06-.17,.17v7.27c0,.17-.11,.28-.28,.28h-3.54c-.17,0-.28-.11-.28-.28v-18.32Z"/></g><rect class="cls-1" x="160.17" y="68.87" width="274.08" height="3.96"/></g></svg>