<?xml version="1.0" encoding="UTF-8"?><svg id="Layer_2" xmlns="http://www.w3.org/2000/svg" viewBox="0 0 211.4 219.98"><g id="Layer_1-2"><g><path d="M205.82,73.33c-6.15-1.02-12.32-1.86-18.49-2.76-.56-.08-1.35-.3-1.66-.03-2.48,2.15-4.87,4.41-7.29,6.63,0,0-.76,.66,.31,.78,4.99,.56,9.97,1.12,15.75,1.77-1.54,1.02-2.31,1.55-3.1,2.04-8.87,5.55-17.76,11.06-26.59,16.67-3.15,2-6.3,4.08-9.17,6.46-4.1,3.4-4.59,5.69-2.78,10.64,2.15,5.86,4.4,11.67,6.6,17.51,2.83,7.53,5.65,15.06,8.47,22.59-.17,.15-.34,.3-.51,.46-.75-.58-1.51-1.14-2.24-1.73-9.73-7.82-19.42-15.69-29.22-23.42-1.16-.91-2.87-1.13-4.33-1.67-.44,1.47-1.26,2.94-1.27,4.42-.1,12.48-.01,24.97-.09,37.45-.02,2.92,.93,5.03,3.32,6.79,11.53,8.46,22.98,17.04,34.48,25.55,.99,.73,2.08,1.44,3.24,1.82,5.6,1.82,8.8,.59,10.02-5.22,1.38-6.57,2.88-13.13,3.84-19.77,.46-3.21,.65-6.91-.48-9.83-4.41-11.45-9.41-22.68-14.17-34-.28-.67-.41-1.41-.62-2.16,.83-.46,1.51-.82,2.16-1.2,10.13-5.87,20.28-11.71,30.39-17.62,3.42-2,6.18-4.6,6.58-8.87,.82-8.88,1.77-17.75,2.37-26.64,.31-4.61-.9-5.88-5.53-6.65Z"/><path d="M145.67,41.01c-3.28-9.63-6.35-19.33-9.55-28.98-.81-2.46-1.67-4.91-2.74-7.27-2.42-5.35-5.82-6.18-10.48-2.52-1.88,1.47-3.64,3.15-5.19,4.97-8.77,10.31-17.42,20.72-26.22,30.99-.78,.91-2.37,1.64-3.57,1.62-10.08-.17-20.15-.54-30.22-.82-11.03-.31-22.07-.65-33.1-.84-5.13-.09-7.6,1.84-8.22,6.87-.8,6.47-1.2,12.99-1.57,19.51-.07,1.2,.58,2.61,1.31,3.64,1.65,2.34,3.38,4.69,5.38,6.72,8.83,8.95,17.8,17.77,26.67,26.68,6.83,6.87,5.55,6.01,1.45,12.5-15.95,25.22-31.92,50.43-47.84,75.67-.8,1.27-1.62,2.79-1.65,4.21-.17,7.87-.18,15.75,.01,23.61,0,0-.14,2.7,2.6,2.39,2.41-.27,4.94-.85,7.08-1.97,10.62-5.57,21.16-11.3,31.67-17.07,12.78-7.02,25.58-14.01,38.2-21.3,4.86-2.81,9.02-6.88,9.6-12.8,.59-5.99,.06-12.07,.31-18.11,.21-4.87-1.94-8.02-5.63-11.06-6.57-5.42-13.68-7.75-22-5.83-4.06,.94-8.04,2.24-12.29,3.43,.59-1,1.11-1.91,1.65-2.8,7.74-12.69,15.5-25.36,23.22-38.06,3.22-5.3,2.7-7.78-1.88-11.96-12.13-11.06-24.19-22.2-36.26-33.33-.43-.4-.71-.95-.81-1.08,6.38,0,12.8-.06,19.21,.01,12.09,.13,24.18,.36,36.27,.48,3.38,.03,6.01-1.52,8.16-4.15,8.07-9.89,16.21-19.73,24.33-29.57,.38-.46,.87-.83,1.49-1.42,.42,1.1,.75,1.88,1.01,2.69,3.31,10.33,6.62,20.65,9.9,30.98,1.71,5.38,2.46,5.94,5.98,2.58h0s2.85-2.67,2.85-2.67h0c1.75-1.62,1.68-3.57,.86-5.96ZM62.64,140.81c5.31-.74,11.69-.08,13.44,5.66,.45,1.47,.35,3.39-.2,4.84-2.22,5.86-7.5,8.85-12.25,12.26-11.74,8.41-24.99,13.97-38.01,19.95-2.39,1.1-4.82,2.13-7.23,3.19l-4.96,2.35,5.03-7.13c5.52-7.81,10.88-15.76,16.95-23.14,7.15-8.7,15.43-16.34,27.23-17.99Z"/><path d="M203.58,17.07c-6.41,1.58-12.83,3.21-19.12,5.23-2.8,.9-5.41,2.63-7.86,4.34-2.18,1.53-4.01,3.56-6.01,5.35-21.52,19.38-43.04,38.76-64.56,58.14-2.38,2.15-5,3.6-8.22,4.36-5.78,1.36-11.45,3.19-17.14,4.88-.8,.24-1.8,.58-2.2,1.2-3.62,5.63-7.16,11.31-10.87,17.23-.62,.98-.23,2.29,.82,2.79,1.35,.63,2.58,1.21,3.77,1.77,.78,.37,1.22,1.21,1.09,2.06-.17,1.04-.33,2.06-.49,3.09-.17,1.05,.55,2.04,1.6,2.22,.63,.1,1.23,.2,1.81,.3,1.05,.17,2.05-.54,2.22-1.59,.17-.97,.3-1.79,.38-2.62,.24-2.42,2.16-3.02,3.89-2.92,6.94,.39,15.46,7.9,17.05,13.35,1,3.42-.39,5.39-3.98,5.52-1.7,.06-3.67-.28-3.58,2.42,.08,2.12,.76,3.67,2.8,3.88,.05,0,.56,0,1.27-.01,.21-.01,.42-.02,.63-.02,1.4-.07,3.18-.24,3.99-.7h0c3.22-1.53,5.16-.09,6.83,2.62,.25,.41,.63,.73,.87,1.14,.87,1.48,1.82,1.72,3.12,.44,3.83-3.74,7.72-7.43,11.56-11.17,.71-.69,1.15-1.61,1.24-2.59,.6-6.19,1.24-12.37,1.63-18.57,.12-1.97,.58-3.41,2.06-4.74,9.73-8.7,19.47-17.39,29.07-26.23,14.82-13.64,29.54-27.39,44.26-41.15,1.01-.94,2.04-2.15,2.41-3.43,2.03-6.97,4.12-13.95,5.66-21.04,1.03-4.76-1.29-6.71-6.04-5.54Z"/><path d="M135.34,130.58s-2.11-1.35-3.77-1.3c0,0-1.18-.28-1.24,3.94l5-2.64Z"/></g></g></svg>